HIERARCHY
ROOT Hips
{
	OFFSET 0.000000 71.427986 0.000000
	CHANNELS 6 Xposition Yposition Zposition Xrotation Yrotation Zrotation
	JOINT Pelvis
	{
		OFFSET 0.000000 0.000000 0.000000
		CHANNELS 3 Xrotation Yrotation Zrotation
		JOINT LeftUpLeg
		{
			OFFSET 6.797100 -2.508499 -1.318700
			CHANNELS 3 Xrotation Yrotation Zrotation
			JOINT LeftLeg
			{
				OFFSET 0.069008 -29.241863 0.690200
				CHANNELS 3 Xrotation Yrotation Zrotation
				JOINT LeftFoot
				{
					OFFSET -0.069008 -29.568123 -0.266800
					CHANNELS 3 Xrotation Yrotation Zrotation
					JOINT LeftToeBase
					{
						OFFSET 3.145500 -8.631000 16.059900
						CHANNELS 3 Xrotation Yrotation Zrotation
						End Site
						{
							OFFSET 0.000000 18.501587 0.000000
						}
					}
				}
			}
			JOINT Left_ShortSleeve
			{
				OFFSET 0.265923 -10.480953 1.153800
				CHANNELS 3 Xrotation Yrotation Zrotation
				End Site
				{
					OFFSET 1.725763 19.823879 0.000000
				}
			}
		}
		JOINT RightUpLeg
		{
			OFFSET -6.797100 -2.508499 -1.318700
			CHANNELS 3 Xrotation Yrotation Zrotation
			JOINT RightLeg
			{
				OFFSET -0.082453 -29.241932 0.688000
				CHANNELS 3 Xrotation Yrotation Zrotation
				JOINT RightFoot
				{
					OFFSET 0.082453 -29.568058 -0.264600
					CHANNELS 3 Xrotation Yrotation Zrotation
					JOINT RightToeBase
					{
						OFFSET -3.115300 -8.682800 16.113400
						CHANNELS 3 Xrotation Yrotation Zrotation
						End Site
						{
							OFFSET 0.000000 18.567114 0.000000
						}
					}
				}
			}
			JOINT Right_ShortSleeve
			{
				OFFSET -0.265923 -10.480953 1.153800
				CHANNELS 3 Xrotation Yrotation Zrotation
				End Site
				{
					OFFSET -1.725766 19.823910 0.000000
				}
			}
		}
	}
	JOINT Spine
	{
		OFFSET 0.000000 13.368103 0.470500
		CHANNELS 3 Xrotation Yrotation Zrotation
		JOINT Spine1
		{
			OFFSET 0.147000 13.837402 0.538800
			CHANNELS 3 Xrotation Yrotation Zrotation
			JOINT Spine2
			{
				OFFSET 0.168000 16.242897 -1.435500
				CHANNELS 3 Xrotation Yrotation Zrotation
				JOINT Neck
				{
					OFFSET 0.217200 18.631500 -1.679100
					CHANNELS 3 Xrotation Yrotation Zrotation
					JOINT Head
					{
						OFFSET 0.000000 6.599396 1.385900
						CHANNELS 3 Xrotation Yrotation Zrotation
						JOINT Hat
						{
							OFFSET -0.532200 27.220596 -10.096100
							CHANNELS 3 Xrotation Yrotation Zrotation
							End Site
							{
								OFFSET 0.000000 22.029861 0.000000
							}
						}
						JOINT HairD
						{
							OFFSET -10.777400 17.437393 -1.325900
							CHANNELS 3 Xrotation Yrotation Zrotation
							JOINT HairD1
							{
								OFFSET -3.290299 -11.051193 1.062200
								CHANNELS 3 Xrotation Yrotation Zrotation
								End Site
								{
									OFFSET 0.000000 11.579437 0.000000
								}
							}
						}
						JOINT HairB
						{
							OFFSET -10.777400 17.437393 1.467900
							CHANNELS 3 Xrotation Yrotation Zrotation
							JOINT HairB1
							{
								OFFSET -1.561200 -12.956299 3.590200
								CHANNELS 3 Xrotation Yrotation Zrotation
								End Site
								{
									OFFSET 0.000000 13.534866 0.000000
								}
							}
						}
						JOINT HairA
						{
							OFFSET 9.713100 17.437393 1.467900
							CHANNELS 3 Xrotation Yrotation Zrotation
							JOINT HairA1
							{
								OFFSET 1.561200 -12.956299 3.590200
								CHANNELS 3 Xrotation Yrotation Zrotation
								End Site
								{
									OFFSET 0.000000 13.534866 0.000000
								}
							}
						}
						JOINT HairC
						{
							OFFSET 9.713100 17.437393 -1.325900
							CHANNELS 3 Xrotation Yrotation Zrotation
							JOINT HairC1
							{
								OFFSET 3.290300 -11.051193 1.062200
								CHANNELS 3 Xrotation Yrotation Zrotation
								End Site
								{
									OFFSET 0.000000 11.579437 0.000000
								}
							}
						}
					}
				}
				JOINT LeftShoulder
				{
					OFFSET 5.101800 15.108002 -2.763700
					CHANNELS 3 Xrotation Yrotation Zrotation
					JOINT LeftArm
					{
						OFFSET 9.825497 2.506317 -1.597400
						CHANNELS 3 Xrotation Yrotation Zrotation
						JOINT LeftForeArm
						{
							OFFSET 21.966244 0.000000 0.000000
							CHANNELS 3 Xrotation Yrotation Zrotation
							JOINT LeftHand
							{
								OFFSET 33.879036 0.000000 0.000000
								CHANNELS 3 Xrotation Yrotation Zrotation
								JOINT LeftHandThumb1
								{
									OFFSET 6.715286 -2.359680 3.363841
									CHANNELS 3 Xrotation Yrotation Zrotation
									JOINT LeftHandThumb2
									{
										OFFSET 2.507072 -1.447464 1.447461
										CHANNELS 3 Xrotation Yrotation Zrotation
										JOINT LeftHandThumb3
										{
											OFFSET 2.898338 -1.673355 1.673357
											CHANNELS 3 Xrotation Yrotation Zrotation
											End Site
											{
												OFFSET -0.295959 3.727692 -0.131651
											}
										}
									}
								}
								JOINT LeftHandIndex1
								{
									OFFSET 14.190811 -0.254547 3.840278
									CHANNELS 3 Xrotation Yrotation Zrotation
									JOINT LeftHandIndex2
									{
										OFFSET 3.551727 0.000000 -0.000000
										CHANNELS 3 Xrotation Yrotation Zrotation
										JOINT LeftHandIndex3
										{
											OFFSET 2.894196 0.000000 0.000000
											CHANNELS 3 Xrotation Yrotation Zrotation
											End Site
											{
												OFFSET -1.000603 2.690872 0.366626
											}
										}
									}
								}
								JOINT LeftHandMiddle1
								{
									OFFSET 13.776489 0.000000 0.000000
									CHANNELS 3 Xrotation Yrotation Zrotation
									JOINT LeftHandMiddle2
									{
										OFFSET 3.438232 0.000000 0.000000
										CHANNELS 3 Xrotation Yrotation Zrotation
										JOINT LeftHandMiddle3
										{
											OFFSET 3.691551 0.000000 0.000000
											CHANNELS 3 Xrotation Yrotation Zrotation
											End Site
											{
												OFFSET -1.082298 3.499527 0.457670
											}
										}
									}
								}
								JOINT LeftHandRing1
								{
									OFFSET 13.966164 -0.268127 -3.067488
									CHANNELS 3 Xrotation Yrotation Zrotation
									JOINT LeftHandRing2
									{
										OFFSET 3.162567 0.000000 0.000000
										CHANNELS 3 Xrotation Yrotation Zrotation
										JOINT LeftHandRing3
										{
											OFFSET 3.324348 0.000000 0.000000
											CHANNELS 3 Xrotation Yrotation Zrotation
											End Site
											{
												OFFSET -0.861900 3.184998 0.405154
											}
										}
									}
								}
								JOINT LeftHandPinky1
								{
									OFFSET 13.131393 -0.168503 -5.746925
									CHANNELS 3 Xrotation Yrotation Zrotation
									JOINT LeftHandPinky2
									{
										OFFSET 2.849182 0.000000 0.000000
										CHANNELS 3 Xrotation Yrotation Zrotation
										JOINT LeftHandPinky3
										{
											OFFSET 2.805038 0.000000 0.000000
											CHANNELS 3 Xrotation Yrotation Zrotation
											End Site
											{
												OFFSET -0.882500 2.642609 0.325652
											}
										}
									}
								}
							}
							JOINT Left_Sleeve
							{
								OFFSET 6.592125 -0.646545 0.805568
								CHANNELS 3 Xrotation Yrotation Zrotation
								End Site
								{
									OFFSET -0.000179 20.275787 -0.000000
								}
							}
						}
					}
				}
				JOINT RightShoulder
				{
					OFFSET -5.731700 15.108002 -2.763700
					CHANNELS 3 Xrotation Yrotation Zrotation
					JOINT RightArm
					{
						OFFSET -9.825497 2.506317 -1.597400
						CHANNELS 3 Xrotation Yrotation Zrotation
						JOINT RightForeArm
						{
							OFFSET -21.966242 0.000000 0.000000
							CHANNELS 3 Xrotation Yrotation Zrotation
							JOINT RightHand
							{
								OFFSET -33.879032 0.000000 0.000000
								CHANNELS 3 Xrotation Yrotation Zrotation
								JOINT RightHandThumb1
								{
									OFFSET -6.715286 -2.359680 3.363841
									CHANNELS 3 Xrotation Yrotation Zrotation
									JOINT RightHandThumb2
									{
										OFFSET -2.507072 -1.447464 1.447461
										CHANNELS 3 Xrotation Yrotation Zrotation
										JOINT RightHandThumb3
										{
											OFFSET -2.898338 -1.673355 1.673357
											CHANNELS 3 Xrotation Yrotation Zrotation
											End Site
											{
												OFFSET 0.295959 3.727692 -0.131651
											}
										}
									}
								}
								JOINT RightHandIndex1
								{
									OFFSET -14.190811 -0.254547 3.840278
									CHANNELS 3 Xrotation Yrotation Zrotation
									JOINT RightHandIndex2
									{
										OFFSET -3.551727 0.000000 -0.000000
										CHANNELS 3 Xrotation Yrotation Zrotation
										JOINT RightHandIndex3
										{
											OFFSET -2.894196 0.000000 0.000000
											CHANNELS 3 Xrotation Yrotation Zrotation
											End Site
											{
												OFFSET 1.000603 2.690872 0.366626
											}
										}
									}
								}
								JOINT RightHandMiddle1
								{
									OFFSET -13.776489 0.000000 0.000000
									CHANNELS 3 Xrotation Yrotation Zrotation
									JOINT RightHandMiddle2
									{
										OFFSET -3.438232 0.000000 0.000000
										CHANNELS 3 Xrotation Yrotation Zrotation
										JOINT RightHandMiddle3
										{
											OFFSET -3.691551 0.000000 0.000000
											CHANNELS 3 Xrotation Yrotation Zrotation
											End Site
											{
												OFFSET 1.082298 3.499527 0.457670
											}
										}
									}
								}
								JOINT RightHandRing1
								{
									OFFSET -13.966164 -0.268127 -3.067488
									CHANNELS 3 Xrotation Yrotation Zrotation
									JOINT RightHandRing2
									{
										OFFSET -3.162567 0.000000 0.000000
										CHANNELS 3 Xrotation Yrotation Zrotation
										JOINT RightHandRing3
										{
											OFFSET -3.324348 0.000000 0.000000
											CHANNELS 3 Xrotation Yrotation Zrotation
											End Site
											{
												OFFSET 0.861900 3.184998 0.405154
											}
										}
									}
								}
								JOINT RightHandPinky1
								{
									OFFSET -13.131393 -0.168503 -5.746925
									CHANNELS 3 Xrotation Yrotation Zrotation
									JOINT RightHandPinky2
									{
										OFFSET -2.849182 0.000000 0.000000
										CHANNELS 3 Xrotation Yrotation Zrotation
										JOINT RightHandPinky3
										{
											OFFSET -2.805038 0.000000 0.000000
											CHANNELS 3 Xrotation Yrotation Zrotation
											End Site
											{
												OFFSET 0.882500 2.642609 0.325652
											}
										}
									}
								}
							}
							JOINT Right_Sleeve
							{
								OFFSET -6.592125 -0.646545 0.805568
								CHANNELS 3 Xrotation Yrotation Zrotation
								End Site
								{
									OFFSET 0.000179 20.275787 -0.000000
								}
							}
						}
					}
				}
				JOINT Bind_Right_JacketString
				{
					OFFSET -3.534800 11.969597 7.200700
					CHANNELS 3 Xrotation Yrotation Zrotation
					JOINT Bind_Right_JacketString1
					{
						OFFSET -0.319900 -6.102600 2.794100
						CHANNELS 3 Xrotation Yrotation Zrotation
						End Site
						{
							OFFSET 0.000000 6.719452 0.000000
						}
					}
				}
				JOINT Bind_Left_JacketString
				{
					OFFSET 2.904800 11.969597 7.200700
					CHANNELS 3 Xrotation Yrotation Zrotation
					JOINT Bind_Left_JacketString1
					{
						OFFSET 0.364800 -5.904503 3.186800
						CHANNELS 3 Xrotation Yrotation Zrotation
						End Site
						{
							OFFSET 0.000000 6.719513 0.000000
						}
					}
				}
				JOINT HairE
				{
					OFFSET 5.915200 17.612701 -11.592200
					CHANNELS 3 Xrotation Yrotation Zrotation
					JOINT HairE1
					{
						OFFSET 0.289200 -7.171898 -1.284500
						CHANNELS 3 Xrotation Yrotation Zrotation
						End Site
						{
							OFFSET 0.000000 7.291756 0.000000
						}
					}
				}
				JOINT HairF
				{
					OFFSET -0.864800 17.612701 -11.592200
					CHANNELS 3 Xrotation Yrotation Zrotation
					JOINT HairF1
					{
						OFFSET 0.000000 -14.087097 -2.127501
						CHANNELS 3 Xrotation Yrotation Zrotation
						End Site
						{
							OFFSET 0.000000 14.246841 0.000000
						}
					}
				}
				JOINT HairG
				{
					OFFSET -8.087700 17.612701 -11.592200
					CHANNELS 3 Xrotation Yrotation Zrotation
					JOINT HairG1
					{
						OFFSET -0.293600 -6.081398 -0.910100
						CHANNELS 3 Xrotation Yrotation Zrotation
						End Site
						{
							OFFSET 0.000000 6.156120 0.000000
						}
					}
				}
			}
		}
	}
	JOINT Pouch
	{
		OFFSET 0.000000 4.394501 10.847300
		CHANNELS 3 Xrotation Yrotation Zrotation
		End Site
		{
			OFFSET 0.000000 21.880577 0.000000
		}
	}
	JOINT Bag
	{
		OFFSET -13.229000 4.813004 -0.593300
		CHANNELS 3 Xrotation Yrotation Zrotation
		End Site
		{
			OFFSET 0.000000 21.880577 0.000000
		}
	}
	JOINT OccupyGuyFacialAnim_Joint
	{
		OFFSET 1.000000 -70.206398 -1.655000
		CHANNELS 3 Xrotation Yrotation Zrotation
		End Site
		{
			OFFSET 0.000000 21.880577 0.000000
		}
	}
}
MOTION
Frames: 4
Frame Time: 0.033333
-0.040951 67.626686 0.017398 5.048658 -15.584005 0.097359 -0.000000 -0.000001 0.000000 -32.149670 3.468424 8.976406 31.582784 4.743420 1.578289 -3.826231 0.568795 -6.010070 0.000000 0.000000 -0.000000 0.000002 -0.000001 -0.000000 -15.059160 -10.959990 -11.515989 32.882033 -6.406911 1.588954 -20.353805 -2.425472 10.593326 -0.000000 0.000002 -0.000000 -0.000001 -0.000001 0.000000 23.085891 4.341045 -0.217413 3.699076 1.240285 -0.840910 3.692187 1.313818 -0.845960 -12.698307 1.122655 2.284733 -14.088194 7.830452 -3.299427 0.000000 0.000000 0.000000 0.000000 0.000000 0.000000 0.000000 0.000000 0.000000 0.000000 0.000000 -0.000000 -0.000000 0.000000 -0.000000 0.000000 0.000000 -0.000000 -0.000000 0.000000 -0.000000 0.000000 0.000000 0.000000 0.000000 0.000000 0.000000 7.812708 -20.949858 9.748536 -33.643552 -3.123690 -85.447176 0.000027 -42.998267 -4.823141 -17.287070 -10.866553 -12.599014 -7.471932 1.860686 -7.166924 30.987028 27.310534 -4.510884 0.000002 0.000004 0.000000 -4.711671 11.363081 -75.214794 -0.816400 3.073974 -46.874615 0.000001 0.000002 0.000002 1.623361 16.580955 -84.691286 0.018004 0.022040 -72.884853 0.000001 -0.000002 -0.000001 -6.443168 23.132613 -76.210178 0.012863 0.975937 -51.002976 -0.000001 0.000002 -0.000001 -17.098981 22.128969 -43.123175 0.014830 0.008517 -78.662872 0.000001 -0.000001 -0.000001 0.000002 0.000000 -0.000000 13.916953 27.241147 -23.493028 -43.128786 -5.410686 84.810951 -0.000027 58.104508 5.767241 -18.206841 16.096567 8.636272 9.347169 2.810533 -11.364526 16.169085 -43.265997 15.843570 -0.000000 0.000002 0.000001 17.076772 -0.396560 31.924355 -0.204394 -0.284186 112.811591 0.000000 0.000001 0.000000 9.205479 -5.035905 102.738107 0.014978 -0.019228 61.018506 0.000000 0.000002 -0.000000 5.569106 -8.935203 107.329087 0.547986 -0.005789 41.263720 0.000001 0.000001 -0.000003 6.511245 -17.148264 98.228024 0.007428 -0.015752 43.845744 -0.000000 -0.000001 -0.000003 0.000000 0.000000 0.000001 0.000002 -0.000001 0.000001 0.000002 -0.000001 0.000001 0.000002 -0.000001 0.000000 0.000002 -0.000001 0.000000 0.000002 -0.000001 0.000001 0.000002 -0.000001 0.000001 0.000002 -0.000001 0.000000 0.000002 -0.000001 0.000000 0.000002 -0.000001 0.000001 0.000002 -0.000001 0.000001 -0.000000 -0.000001 0.000000 -0.000000 -0.000001 0.000000 -0.000000 -0.000001 0.000000 
0.138528 67.254303 -0.179198 6.553413 -15.657413 0.487600 -0.000000 0.000000 -0.000000 -34.850268 3.116148 8.893686 33.472534 5.045511 1.607714 -4.423105 0.583888 -6.008961 -0.000000 0.000000 -0.000000 -0.000001 0.000001 0.000000 -17.893417 -10.493902 -11.847807 35.102944 -6.365991 1.631185 -21.120094 -2.537432 10.762346 -0.000000 0.000001 0.000000 0.000000 -0.000001 -0.000000 23.358429 4.246695 -0.277095 3.622322 1.199704 -0.930997 3.615594 1.271677 -0.936269 -13.797295 1.031618 2.467588 -17.396243 7.286156 -2.702741 0.000001 -0.000000 -0.000000 0.000001 -0.000000 -0.000000 0.000001 -0.000000 -0.000000 0.000001 -0.000000 -0.000000 0.000000 -0.000000 0.000000 0.000001 -0.000000 -0.000000 0.000000 -0.000000 0.000000 0.000001 -0.000000 -0.000000 0.000001 -0.000000 -0.000000 7.522013 -26.714495 8.295876 -31.148227 -9.364397 -76.907097 0.000018 -43.628725 -5.356460 -24.156147 -13.887737 -4.669192 -7.471928 1.860681 -7.166925 30.987025 27.310532 -4.510885 -0.000000 0.000003 -0.000003 -4.705855 11.370504 -75.288977 -0.816399 3.073974 -46.874618 0.000001 -0.000001 -0.000002 1.623366 16.580954 -84.691286 0.018006 0.022041 -72.884853 0.000002 -0.000000 -0.000001 -6.442249 23.132819 -78.215262 0.012864 0.975934 -51.002973 -0.000000 0.000002 -0.000004 -17.096775 22.130911 -49.647771 0.014485 0.007990 -75.619517 -0.000001 -0.000002 -0.000001 -0.000001 0.000002 -0.000000 13.408863 26.055138 -22.670918 -44.951480 -0.270060 82.457438 0.000066 54.952232 5.635987 -21.829966 19.921683 6.802837 9.347168 2.810534 -11.364526 16.169083 -43.265997 15.843575 0.000001 0.000000 0.000002 17.076774 -0.396561 31.924355 -0.204394 -0.284186 112.811591 -0.000001 0.000001 -0.000001 9.205482 -5.035905 102.738107 0.014984 -0.019226 61.018499 0.000001 0.000001 -0.000001 5.569106 -8.935205 107.329087 0.547985 -0.005783 41.263724 0.000001 0.000003 -0.000002 6.511247 -17.148264 98.228031 0.007423 -0.015752 43.845747 0.000001 0.000004 -0.000002 0.000002 -0.000001 0.000001 -0.000004 -0.000000 0.000000 -0.000003 -0.000000 0.000000 -0.000004 -0.000000 0.000000 -0.000004 -0.000000 0.000000 -0.000004 -0.000000 0.000000 -0.000003 -0.000000 0.000000 -0.000004 -0.000000 0.000000 -0.000004 -0.000000 0.000000 -0.000004 -0.000000 0.000000 -0.000003 -0.000000 0.000000 -0.000000 0.000000 -0.000000 -0.000000 0.000000 -0.000000 -0.000000 0.000000 -0.000000 
0.344536 66.735329 -0.394516 8.419398 -15.496871 1.073532 0.000000 -0.000001 0.000000 -38.278009 2.743416 8.780194 35.933465 5.128199 1.379618 -5.220327 0.584472 -5.831881 -0.000000 0.000000 0.000000 -0.000001 0.000001 -0.000000 -21.417592 -9.859300 -12.348629 38.043986 -6.529348 1.664962 -22.209038 -2.724218 11.086397 0.000000 -0.000004 -0.000000 -0.000000 0.000000 0.000000 23.559981 4.059933 -0.345388 3.517249 1.137369 -1.067934 3.510630 1.209515 -1.071166 -15.530124 0.611999 2.466184 -20.836558 7.047809 -1.917229 0.000000 0.000000 0.000000 0.000000 0.000000 0.000000 0.000000 0.000000 0.000000 0.000000 0.000000 -0.000000 0.000000 -0.000000 -0.000000 0.000000 0.000000 -0.000000 0.000000 -0.000000 -0.000000 0.000000 0.000000 0.000000 0.000000 0.000000 0.000000 7.202936 -33.243634 6.488888 -28.322167 -13.247430 -69.241125 0.000164 -42.116244 -4.126947 -28.520396 -17.350683 1.036563 -7.471928 1.860684 -7.166924 30.987018 27.310539 -4.510890 -0.000003 -0.000004 -0.000002 -4.703154 11.372647 -75.374348 -0.816396 3.073978 -46.874612 0.000001 -0.000003 -0.000001 1.623364 16.580955 -84.691279 0.018004 0.022039 -72.884853 0.000001 -0.000001 0.000001 -6.441196 23.133019 -80.507296 0.012863 0.975937 -51.002973 -0.000001 -0.000000 -0.000004 -17.093986 22.132857 -57.106221 0.014136 0.007336 -72.140595 0.000000 -0.000002 0.000003 0.000000 0.000002 -0.000000 12.859995 24.767156 -21.697500 -47.219352 6.739748 79.980764 0.000275 49.937610 4.703011 -26.341220 24.980859 4.613738 9.347169 2.810534 -11.364526 16.169083 -43.265994 15.843563 -0.000001 0.000001 0.000001 17.076774 -0.396559 31.924352 -0.204394 -0.284183 112.811584 -0.000000 -0.000000 0.000000 9.205480 -5.035906 102.738107 0.014981 -0.019227 61.018506 -0.000000 -0.000000 -0.000001 5.569107 -8.935206 107.329087 0.547984 -0.005783 41.263720 -0.000000 -0.000005 -0.000001 6.511246 -17.148266 98.228031 0.007425 -0.015751 43.845747 -0.000002 0.000000 0.000001 0.000000 -0.000001 0.000002 -0.000000 -0.000000 0.000000 0.000003 0.000000 0.000000 -0.000000 -0.000000 0.000000 -0.000000 -0.000000 0.000000 -0.000000 -0.000000 0.000000 0.000003 0.000000 -0.000000 -0.000000 -0.000000 0.000000 -0.000000 -0.000000 0.000000 -0.000000 -0.000000 0.000000 0.000003 0.000000 -0.000000 0.000000 -0.000001 0.000000 0.000000 -0.000001 0.000000 0.000000 -0.000001 0.000000 
0.575521 66.071289 -0.596688 10.498421 -15.115403 1.818397 0.000001 -0.000000 0.000000 -42.227706 2.398982 8.606386 38.901814 5.005211 0.922427 -6.224415 0.570812 -5.482071 -0.000000 -0.000000 -0.000000 -0.000005 0.000000 -0.000001 -25.383867 -9.045926 -13.025283 41.552958 -6.861791 1.692455 -23.570833 -2.994135 11.582538 0.000000 0.000002 0.000000 -0.000001 -0.000001 0.000000 23.666971 3.872031 -0.412893 3.378079 1.063312 -1.224441 3.371281 1.134926 -1.226973 -17.803766 0.358483 2.417871 -24.111794 6.556110 -1.399522 0.000000 0.000000 -0.000000 0.000000 0.000000 -0.000000 0.000000 0.000000 0.000000 0.000000 0.000000 -0.000000 0.000000 -0.000000 -0.000000 0.000000 0.000000 -0.000000 0.000000 -0.000000 -0.000000 0.000000 0.000000 -0.000000 0.000000 0.000000 -0.000000 6.765209 -40.416685 4.514623 -25.448894 -15.540572 -62.296687 0.000645 -38.583988 -1.655665 -31.631945 -20.817211 4.198154 -7.471930 1.860688 -7.166927 30.987025 27.310535 -4.510881 -0.000000 0.000001 -0.000002 -4.703789 11.375194 -75.462840 -0.816396 3.073979 -46.874612 0.000001 -0.000002 -0.000002 1.623365 16.580950 -84.691279 0.018005 0.022043 -72.884860 0.000001 0.000002 -0.000001 -6.440086 23.133169 -82.895909 0.012861 0.975935 -51.002969 -0.000002 -0.000001 0.000001 -17.090815 22.134500 -64.878942 0.013800 0.006652 -68.515123 0.000001 -0.000001 -0.000003 0.000002 0.000003 0.000001 12.328389 23.688802 -20.601883 -49.197559 15.399765 77.198637 0.000629 43.574671 3.288869 -32.478396 31.133741 2.278010 9.347169 2.810533 -11.364528 16.169085 -43.265990 15.843570 -0.000000 0.000001 -0.000001 17.076772 -0.396562 31.924355 -0.204394 -0.284186 112.811598 -0.000001 -0.000001 0.000000 9.205480 -5.035905 102.738107 0.014978 -0.019228 61.018499 0.000001 -0.000001 -0.000001 5.569108 -8.935203 107.329087 0.547983 -0.005791 41.263724 0.000001 0.000001 0.000001 6.511248 -17.148264 98.228031 0.007421 -0.015750 43.845747 0.000002 -0.000002 0.000000 0.000002 -0.000000 0.000000 0.000003 0.000000 -0.000001 0.000001 0.000000 0.000000 0.000003 0.000000 -0.000001 0.000003 0.000000 -0.000001 0.000003 0.000000 -0.000001 0.000001 0.000000 0.000000 0.000003 0.000000 -0.000001 0.000003 0.000000 -0.000001 0.000003 0.000000 -0.000001 0.000001 0.000000 0.000000 0.000001 -0.000000 0.000000 0.000001 -0.000000 0.000000 0.000001 -0.000000 0.000000 
